<svg width="120" height="120" viewBox="0 0 120 120" fill="none" xmlns="http://www.w3.org/2000/svg">
<path fill-rule="evenodd" clip-rule="evenodd" d="M120 0H0V70.5791H6.22146V70.5742L7.14158 70.5751L7.15328 70.5752L7.1816 70.5752C10.8184 70.5789 21.5959 70.5901 24.2652 70.5901C30.72 70.5901 35.9475 70.5722 40.7165 70.533C43.7068 70.5087 46.7478 70.1005 49.3282 69.7043C51.6562 69.3472 53.8864 68.6504 56.1467 67.5741C56.2827 67.5092 56.372 67.3767 56.38 67.2274C56.3875 67.0782 56.3123 66.9368 56.1838 66.8589L55.5025 66.4443C54.0224 65.5422 52.6241 64.6901 51.154 63.9422C50.6844 63.7036 50.0336 63.5826 49.2198 63.5826C49.0196 63.5826 48.8074 63.5901 48.5716 63.6054C47.341 63.6858 46.0841 63.8193 44.8567 63.9496L44.8563 63.9496L44.8096 63.9546C42.887 64.1589 40.8986 64.3702 38.9283 64.3881C34.784 64.4273 30.3723 64.4446 24.6245 64.4446C21.736 64.4446 6.33285 64.4268 6.33285 64.4268C6.2957 64.4268 6.25954 64.4272 6.22291 64.4277L6.22146 64.4277V6.14991H113.779V64.4932L83.3395 64.5235C83.2051 64.5235 83.0791 64.5879 83.0019 64.6971C82.9246 64.8057 82.9055 64.9445 82.9512 65.07C83.5628 66.7503 83.9441 68.4445 84.0841 70.1055C84.1022 70.3173 84.2808 70.48 84.4955 70.48L115.701 70.5142L116.201 70.5167V70.5052H120V0ZM69.5225 55.5158C69.8466 55.5406 70.1672 55.5748 70.4753 55.618C74.7159 56.2156 77.8482 58.3552 79.7854 61.9772C83.3286 68.6022 83.2383 75.1132 79.518 81.3286C77.3766 84.9064 73.8941 87.0504 69.7121 87.3654C69.3163 87.3951 68.9846 87.4085 68.6685 87.4085C65.9948 87.4085 63.1685 86.5996 60.9153 85.1896C60.7954 85.1147 60.7231 84.9838 60.7231 84.8439C60.7236 84.7036 60.7969 84.5731 60.9168 84.4987C63.2854 83.0292 66.0971 81.4372 69.4904 81.153C71.6909 80.9685 73.4154 79.7812 74.4776 77.7199C76.6395 73.5231 76.6285 69.2797 74.4439 65.1072C73.3763 63.0668 71.56 61.8799 69.1933 61.6741C65.9993 61.3964 63.3447 59.8867 60.8992 58.3641C60.7778 58.2887 60.705 58.1563 60.706 58.0149C60.7076 57.8731 60.7828 57.7426 60.9057 57.6692C63.3773 56.1918 65.8443 55.4741 68.4473 55.4741C68.7904 55.4741 69.1522 55.488 69.5225 55.5158ZM38.022 62.5092L38.7585 62.5206L38.7735 62.5209L38.7745 62.5209H38.7747H38.7749H38.7751H38.7753H38.7755H38.7758H38.776H38.7762H38.7764H38.7766H38.7768H38.777H38.7772H38.7774H38.7776H38.7778H38.778H38.7782H38.7783H38.7785H38.7787H38.7789H38.7791H38.7793H38.7794H38.7796C39.3033 62.5287 39.8221 62.5365 40.3374 62.5365C41.1999 62.5365 41.9089 62.5147 42.5681 62.4676C43.838 62.3793 45.1174 62.1407 46.3582 61.9086L47.451 61.7083C47.8945 61.6309 48.3411 61.5917 48.7786 61.5917C51.2757 61.5917 53.3659 62.8698 55.129 64.0676C59.5161 67.0512 63.6885 68.8724 67.884 69.6362C69.3483 69.9023 70.7846 70.0872 72.3049 70.2829L72.3087 70.2834C72.3087 70.2834 73.2841 70.4094 73.5907 70.4501C73.6092 70.4525 73.6278 70.4535 73.6459 70.4535H73.6514C73.8792 70.4535 74.0643 70.271 74.0643 70.0454C74.0643 70.0146 74.0608 69.9849 74.0543 69.9561C73.9695 68.549 73.5952 67.3092 72.8787 66.0588C72.3434 65.1269 71.6154 64.1469 70.2692 63.9495C66.5393 63.4035 62.8757 61.924 59.0691 59.4263C57.7596 58.5678 56.0175 57.4777 54.1511 56.6564C52.4698 55.9174 50.6882 55.5425 48.8553 55.5425C44.2048 55.5425 39.9185 57.9781 37.6692 61.8997C37.5975 62.0252 37.5975 62.1784 37.6702 62.3039C37.7425 62.4289 37.8765 62.5068 38.022 62.5092ZM72.8342 76.9111C73.5707 75.6469 73.9696 74.3604 74.0539 72.9791C74.0614 72.8596 74.0153 72.7431 73.9285 72.6602C73.8417 72.5774 73.7228 72.5353 73.6018 72.5477C73.3204 72.5749 73.0539 72.5983 72.787 72.6161C67.0292 72.9742 61.759 74.6436 57.1235 77.5767C55.3027 78.7288 53.8893 79.5913 52.5407 80.3729C50.8995 81.3242 48.9638 81.591 47.1867 81.1134C44.4192 80.3734 41.5472 80.3377 38.7697 80.3035L37.9649 80.2926C37.8159 80.2985 37.6809 80.366 37.6052 80.49C37.5294 80.6145 37.5264 80.7687 37.5966 80.8962C39.6221 84.5613 43.6435 87.0788 47.84 87.3109C48.1074 87.3263 48.3863 87.3342 48.6688 87.3342C51.8679 87.3342 54.955 86.2828 58.1079 84.1204C62.4072 81.1709 65.9901 79.6116 69.725 79.0656C71.1243 78.8612 72.0831 78.1967 72.8342 76.9111ZM116.201 72.3848V72.3947H120V120H0V72.4175H6.22147V72.422C10.1676 72.4031 23.7329 72.3392 25.0695 72.3392C32.1444 72.3392 37.5616 72.359 42.6331 72.4046C47.4813 72.4483 51.8815 73.3941 56.085 75.2961C56.222 75.3581 56.3143 75.49 56.3248 75.6388C56.3354 75.7876 56.2626 75.9309 56.1352 76.0113C55.7072 76.2817 55.2904 76.5589 54.8862 76.8278L54.8648 76.842L54.8602 76.845C53.2484 77.9176 51.7257 78.9309 49.8766 79.362C49.7662 79.3878 49.6428 79.4002 49.4993 79.4002C49.2944 79.4002 49.082 79.3762 48.877 79.353L48.8731 79.3525L48.7045 79.3342C47.9384 79.2514 47.1647 79.1427 46.4166 79.0376L46.3073 79.0227L46.3049 79.0224L46.3045 79.0223C44.6773 78.7938 42.9979 78.558 41.3221 78.5471C36.3549 78.5119 30.8655 78.4955 24.0455 78.4955L6.22147 78.5788V113.85H113.778V78.4643C99.119 78.4638 86.4979 78.4638 83.3496 78.4638C83.2141 78.4638 83.0877 78.3983 83.0104 78.2887C82.9331 78.1786 82.9151 78.0382 82.9627 77.9133C83.5979 76.2285 83.9817 74.504 84.1032 72.788C84.1187 72.5733 84.2928 72.4051 84.5106 72.4031C85.1653 72.3972 85.8708 72.3952 86.5712 72.3952L93.335 72.3997L115.701 72.3863L116.201 72.3848ZM15.6807 97.2076H16.6571L17.4619 102.107H17.4809L18.1412 97.2076H19.252L18.0358 104.898H17.0404L16.1784 99.8169H16.1594L15.3556 104.898H14.3591L13.0481 97.2076H14.159L14.8865 102.107H14.9055L15.6807 97.2076ZM19.998 97.2076V104.898H21.1856V101.489H22.4489V104.898H23.6365V97.2076H22.4489V100.339H21.1856V97.2076H19.998ZM24.7757 104.898V97.2076H27.9547V98.3573H25.9633V100.339H27.4946V101.489H25.9633V103.747H28.0886V104.898H24.7757ZM30.6421 100.658H30.2201V98.2933H30.6421C31.2833 98.2933 31.5226 98.5596 31.5226 99.4757C31.5226 100.392 31.2833 100.658 30.6421 100.658ZM29.0325 104.898H30.2201V101.745C30.4308 101.745 30.6797 101.734 30.8327 101.713L31.6756 104.898H32.8818L31.8768 101.415C32.2787 101.213 32.7092 100.712 32.7092 99.4757C32.7092 97.8355 32.0299 97.2076 30.6988 97.2076H29.0325V104.898ZM33.8106 104.898V97.2076H36.9896V98.3573H34.9982V100.339H36.5295V101.489H34.9982V103.747H37.1235V104.898H33.8106ZM40.1869 97.2076V104.898H41.3745V101.489H42.964V100.339H41.3745V98.3573H43.4999V97.2076H40.1869ZM45.614 102.972C45.614 103.547 45.767 103.824 46.2457 103.824C46.7243 103.824 46.8773 103.547 46.8773 102.972V99.0731C46.8773 98.4983 46.7243 98.2206 46.2457 98.2206C45.767 98.2206 45.614 98.4983 45.614 99.0731V102.972ZM44.4264 99.0419C44.4264 97.9547 45.0014 97.0709 46.2457 97.0709C47.4904 97.0709 48.0649 97.9547 48.0649 99.0419V103.004C48.0649 104.091 47.4904 104.975 46.2457 104.975C45.0014 104.975 44.4264 104.091 44.4264 103.004V99.0419ZM51.041 103.824C50.5624 103.824 50.4093 103.547 50.4093 102.972V99.0731C50.4093 98.4983 50.5624 98.2206 51.041 98.2206C51.5197 98.2206 51.6727 98.4983 51.6727 99.0731V102.972C51.6727 103.547 51.5197 103.824 51.041 103.824ZM51.041 97.0709C49.7967 97.0709 49.2217 97.9547 49.2217 99.0419V103.004C49.2217 104.091 49.7967 104.975 51.041 104.975C52.2858 104.975 52.8603 104.091 52.8603 103.004V99.0419C52.8603 97.9547 52.2858 97.0709 51.041 97.0709ZM55.1872 103.811H55.5986C56.2303 103.811 56.4505 103.545 56.4505 102.736V99.3695C56.4505 98.5596 56.2303 98.2933 55.5986 98.2933H55.1872V103.811ZM53.9996 97.2076H55.7612C56.9864 97.2076 57.6381 97.9526 57.6381 99.5297V102.576C57.6381 104.152 56.9864 104.898 55.7612 104.898H53.9996V97.2076ZM65.6713 104.898V97.2076H64.1104L63.268 101.702H63.249L62.4061 97.2076H60.8452V104.898H61.8797V98.8904H61.8988L62.9715 104.898H63.5455L64.6177 98.8904H64.6367V104.898H65.6713ZM66.7523 104.898V97.2076H69.9313V98.3573H67.9399V100.339H69.4712V101.489H67.9399V103.747H70.0652V104.898H66.7523ZM71.009 97.2076V104.898H74.3224V103.747H72.1966V101.489H73.7289V100.339H72.1966V98.3573H74.1885V97.2076H71.009ZM75.9453 98.3238H74.7968V97.1737H78.2813V98.3238H77.1329V104.865H75.9453V98.3238ZM80.5095 98.2211C80.7774 98.2211 81.0935 98.413 81.1412 99.0736L82.2716 98.9352C82.1662 97.8486 81.5912 97.0709 80.6244 97.0709C79.4569 97.0709 78.786 97.7633 78.786 98.9883C78.786 100.193 79.5057 100.86 80.1589 101.466C80.7018 101.969 81.1989 102.43 81.1989 103.121C81.1989 103.579 80.9214 103.824 80.5095 103.824C80.1267 103.824 79.8492 103.441 79.8005 102.663L78.6711 102.844C78.7193 103.996 79.3515 104.975 80.4523 104.975C81.5631 104.975 82.3288 104.272 82.3288 103.004C82.3288 101.839 81.5773 101.129 80.9131 100.5C80.3869 100.003 79.9154 99.5568 79.9154 98.9779C79.9154 98.4988 80.1267 98.2211 80.5095 98.2211ZM86.5296 100.658H86.9891C87.7648 100.658 88.0041 100.392 88.0041 99.4757C88.0041 98.5596 87.7648 98.2933 86.9891 98.2933H86.5296V100.658ZM85.343 104.898V97.2076H87.0473C88.5124 97.2076 89.1912 97.8355 89.1912 99.4757C89.1912 101.117 88.5124 101.745 87.0473 101.745H86.5296V104.898H85.343ZM92.1583 102.009H91.2005L91.6696 98.7072H91.6886L92.1583 102.009ZM89.6692 104.865H90.8176L91.0284 103.16H92.3309L92.5411 104.865H93.6905L92.4166 97.1737H90.9421L89.6692 104.865ZM95.5642 100.658H95.9862C96.6274 100.658 96.8667 100.392 96.8667 99.4757C96.8667 98.5596 96.6274 98.2933 95.9862 98.2933H95.5642V100.658ZM95.5642 104.898H94.3776V97.2076H96.0429C97.374 97.2076 98.0543 97.8355 98.0543 99.4757C98.0543 100.712 97.6228 101.213 97.2209 101.415L98.2259 104.898H97.0198L96.1768 101.713C96.0238 101.734 95.775 101.745 95.5642 101.745V104.898ZM98.7039 98.3238H99.8523V104.865H101.04V98.3238H102.188V97.1737H98.7039V98.3238ZM105.028 104.898H103.841V101.702L102.405 97.2076H103.611L104.444 100.136H104.463L105.257 97.2076H106.464L105.028 101.702V104.898ZM26.8197 15.3196H32.2685C32.4717 15.3196 32.6363 15.4823 32.6363 15.6831V47.0442C32.6363 47.245 32.4717 47.4077 32.2685 47.4077H26.8197C26.6165 47.4077 26.4519 47.245 26.4519 47.0442V33.5079H21.3869V47.0442C21.3869 47.245 21.2224 47.4077 21.0192 47.4077H15.5704C15.3672 47.4077 15.2026 47.245 15.2026 47.0442V15.6831C15.2026 15.4823 15.3672 15.3196 15.5704 15.3196H21.0192C21.2224 15.3196 21.3869 15.4823 21.3869 15.6831V28.0901H26.4519V15.6831C26.4519 15.4823 26.6165 15.3196 26.8197 15.3196ZM43.9013 15.3196H38.4525C38.2493 15.3196 38.0847 15.4823 38.0847 15.6831V47.0442C38.0847 47.245 38.2493 47.4077 38.4525 47.4077H43.9013C44.1045 47.4077 44.269 47.245 44.269 47.0442V15.6831C44.269 15.4823 44.1045 15.3196 43.9013 15.3196ZM48.1989 15.3196H64.1941C64.3973 15.3196 64.5619 15.4823 64.5619 15.6831V20.3739C64.5619 20.5748 64.3973 20.7374 64.1941 20.7374H59.2887V47.0442C59.2887 47.245 59.1241 47.4077 58.9209 47.4077H53.4721C53.2689 47.4077 53.1044 47.245 53.1044 47.0442V20.7374H48.1989C47.9962 20.7374 47.8317 20.5748 47.8317 20.3739V15.6831C47.8317 15.4823 47.9962 15.3196 48.1989 15.3196ZM75.4343 14.8732C70.0577 14.8732 66.7177 18.0915 66.7177 23.2723V39.4307C66.7177 44.612 70.0577 47.8302 75.4343 47.8302C80.5695 47.8302 83.8874 44.5331 83.8874 39.4307V35.8255C83.8874 35.6247 83.7229 35.462 83.5197 35.462H78.0709C77.8677 35.462 77.7031 35.6247 77.7031 35.8255V39.6047C77.7031 41.6248 77.0669 42.4119 75.4343 42.4119C73.5643 42.4119 72.9015 41.598 72.9015 39.3007V23.4027C72.9015 21.1054 73.5643 20.291 75.4343 20.291C76.8547 20.291 77.7031 21.5681 77.7031 23.7067V26.1394C77.7031 26.3398 77.8677 26.5025 78.0709 26.5025H83.5197C83.7229 26.5025 83.8874 26.3398 83.8874 26.1394V23.8372C83.8874 18.3915 80.5695 14.8732 75.4343 14.8732ZM99.2181 15.3196H104.667C104.87 15.3196 105.035 15.4823 105.035 15.6831V47.0442C105.035 47.245 104.87 47.4077 104.667 47.4077H99.2181C99.0149 47.4077 98.8504 47.245 98.8504 47.0442V33.5079H93.7854V47.0442C93.7854 47.245 93.6208 47.4077 93.4176 47.4077H87.9688C87.7661 47.4077 87.6016 47.245 87.6016 47.0442V15.6831C87.6016 15.4823 87.7661 15.3196 87.9688 15.3196H93.4176C93.6208 15.3196 93.7854 15.4823 93.7854 15.6831V28.0901H98.8504V15.6831C98.8504 15.4823 99.0149 15.3196 99.2181 15.3196Z" fill="white"/>
</svg>
